/* XPM */
static char *_020acf2080f443598f906fa5137dde0bCajCQRe1v28T6FA[] = {
/* columns rows colors chars-per-pixel */
"64 64 38 1 ",
"  c black",
". c #060606",
"X c gray3",
"o c gray5",
"O c #111111",
"+ c gray9",
"@ c #1B1B1B",
"# c gray12",
"$ c gray13",
"% c #232323",
"& c #282828",
"* c gray18",
"= c #313131",
"- c #373737",
"; c #434343",
": c gray30",
"> c #515151",
", c gray34",
"< c #5D5D5D",
"1 c #606060",
"2 c #656565",
"3 c #686868",
"4 c #717171",
"5 c #767676",
"6 c #797979",
"7 c gray53",
"8 c #8B8B8B",
"9 c #9A9A9A",
"0 c #A2A2A2",
"q c #A7A7A7",
"w c #A9A9A9",
"e c #AFAFAF",
"r c #B7B7B7",
"t c gray86",
"y c #E7E7E7",
"u c #ECECEC",
"i c #FDFDFD",
"p c white",
/* pixels */
"                                                                ",
"                                                                ",
"                                                                ",
"                                                                ",
"                                                                ",
"                                                                ",
"                                                                ",
"                                                                ",
"                                                                ",
"                                                                ",
"                                                                ",
"                                                                ",
"                                                                ",
"                                                                ",
"                                                                ",
"                                                                ",
"                                                                ",
"                                                                ",
"                                                                ",
"                                                                ",
"                                                                ",
"                          $ppppt   @pppp*;ppppp                 ",
"                         &ppppr    @ppp  +ppppp                 ",
"                        $pppp9     #pp   +ppppp                 ",
"                       +ppppw      $p    +ppppp                 ",
"                      +ppppr       $     +ppppp                 ",
"                     $ppppr              +ppppp                 ",
"                    &pppp0               tpppp                  ",
"                   #ppppe               ypppp                   ",
"                  $ppppe               ppppp                    ",
"                 *ppppq               upppp                     ",
"                =pppp8               ypppp                      ",
"               #ppppy               upppp                       ",
"               ppppppppppppppppp>  @ppppp                       ",
"               ppppppppppppppppp,  $ppppp     p                 ",
"               ppppppppppppppppp2  $ppppp    pp                 ",
"               ppppppppppppppppp5  &ppppp   ppp                 ",
"               @OOoXX..   -ppppp8  *ppppp  pppp                 ",
"                           ppppp7  O343<1@>:::>                 ",
"                           ppppp6                               ",
"                           ppppp3                               ",
"                           ppppp1                               ",
"                           ppppp,                               ",
"                           OoOo+X                               ",
"                                                                ",
"                                                                ",
"                                                                ",
"                                                                ",
"                                                                ",
"                                                                ",
"                                                                ",
"                                                                ",
"                                                                ",
"                                                                ",
"                                                                ",
"                                                                ",
"                                                                ",
"                                                                ",
"                                                                ",
"                                                                ",
"                                                                ",
"                                                                ",
"                                                                ",
"                                                                "
};
